<svg xmlns="http://www.w3.org/2000/svg" version="1.1" xmlns:xlink="http://www.w3.org/1999/xlink" xmlns:svgjs="http://svgjs.dev/svgjs" width="1500" height="79" viewBox="0 0 1500 79"><g transform="matrix(1,0,0,1,-0.9090909090909918,-0.12847491434364144)"><svg viewBox="0 0 396 21" data-background-color="#ffffff" preserveAspectRatio="xMidYMid meet" height="79" width="1500" xmlns="http://www.w3.org/2000/svg" xmlns:xlink="http://www.w3.org/1999/xlink"><g id="tight-bounds" transform="matrix(1,0,0,1,0.2400000000000091,0.034151559509069784)"><svg viewBox="0 0 395.52 20.931696880981868" height="20.931696880981868" width="395.52"><g><svg viewBox="0 0 395.52 20.931696880981868" height="20.931696880981868" width="395.52"><g><svg viewBox="0 0 395.52 20.931696880981868" height="20.931696880981868" width="395.52"><g id="textblocktransform"><svg viewBox="0 0 395.52 20.931696880981868" height="20.931696880981868" width="395.52" id="textblock"><g><svg viewBox="0 0 395.52 20.931696880981868" height="20.931696880981868" width="395.52"><g transform="matrix(1,0,0,1,0,0)"><svg width="395.52" viewBox="3.5 -35.75 888.03 47" height="20.931696880981868" data-palette-color="url(#eff5af6c-bbb1-4086-bad5-15af91cfd3dc)"></svg></g></svg></g></svg></g></svg></g></svg></g><defs></defs><mask id="af6237d4-f2fa-4ebf-98d4-3820d03e6f4e"><g id="SvgjsG3067"><svg viewBox="0 0 395.52 20.931696880981868" height="20.931696880981868" width="395.52"><g><svg viewBox="0 0 395.52 20.931696880981868" height="20.931696880981868" width="395.52"><g><svg viewBox="0 0 395.52 20.931696880981868" height="20.931696880981868" width="395.52"><g id="SvgjsG3066"><svg viewBox="0 0 395.52 20.931696880981868" height="20.931696880981868" width="395.52" id="SvgjsSvg3065"><g><svg viewBox="0 0 395.52 20.931696880981868" height="20.931696880981868" width="395.52"><g transform="matrix(1,0,0,1,0,0)"><svg width="395.52" viewBox="3.5 -35.75 888.03 47" height="20.931696880981868" data-palette-color="url(#eff5af6c-bbb1-4086-bad5-15af91cfd3dc)"><path d="M42.7 0L3.5 0 3.5-35.75 42.7-35.75 42.7-29.25 11.5-29.25 11.5-21.35 39.8-21.35 39.8-14.85 11.5-14.85 11.5-6.5 42.7-6.5 42.7 0ZM67.6 0L54.8 0 43.95-25.75 51.55-25.75 59.95-5.8 62.45-5.8 70.85-25.75 78.45-25.75 67.6 0ZM103.65 0.25L94.4 0.25Q87.7 0.25 83.95-3.08 80.2-6.4 80.2-12.85L80.2-12.85Q80.2-19.35 83.95-22.68 87.7-26 94.4-26L94.4-26 103.65-26Q110.35-26 114.09-22.68 117.85-19.35 117.85-12.85L117.85-12.85Q117.85-6.4 114.09-3.08 110.35 0.25 103.65 0.25L103.65 0.25ZM94.4-5.5L94.4-5.5 103.65-5.5Q106.9-5.5 108.62-7.3 110.35-9.1 110.35-12.85L110.35-12.85Q110.35-16.65 108.62-18.45 106.9-20.25 103.65-20.25L103.65-20.25 94.4-20.25Q91.15-20.25 89.42-18.45 87.7-16.65 87.7-12.85L87.7-12.85Q87.7-9.1 89.42-7.3 91.15-5.5 94.4-5.5ZM129.59 0L122.34 0 122.34-35.75 129.59-35.75 129.59 0ZM157.29 0L143.29 0Q138.89 0 136.87-2.2 134.84-4.4 134.84-7.9L134.84-7.9 134.84-25.75 142.09-25.75 142.09-8.75Q142.09-5.75 145.09-5.75L145.09-5.75 155.49-5.75Q158.49-5.75 158.49-8.75L158.49-8.75 158.49-25.75 165.74-25.75 165.74-7.9Q165.74-4.4 163.72-2.2 161.69 0 157.29 0L157.29 0ZM195.29 0L184.39 0Q180.04 0 177.99-2.18 175.94-4.35 175.94-7.9L175.94-7.9 175.94-20 168.49-20 168.49-25.75 175.94-25.75 175.94-33.65 183.19-33.65 183.19-25.75 193.89-25.75 193.89-20 183.19-20 183.19-8.8Q183.19-5.75 186.19-5.75L186.19-5.75 195.29-5.75 195.29 0ZM206.29 0L199.04 0 199.04-25.75 206.29-25.75 206.29 0ZM206.34-30L198.99-30 198.99-35.65 206.34-35.65 206.34-30ZM234.23 0.25L224.98 0.25Q218.28 0.25 214.53-3.08 210.78-6.4 210.78-12.85L210.78-12.85Q210.78-19.35 214.53-22.68 218.28-26 224.98-26L224.98-26 234.23-26Q240.93-26 244.68-22.68 248.43-19.35 248.43-12.85L248.43-12.85Q248.43-6.4 244.68-3.08 240.93 0.25 234.23 0.25L234.23 0.25ZM224.98-5.5L224.98-5.5 234.23-5.5Q237.48-5.5 239.21-7.3 240.93-9.1 240.93-12.85L240.93-12.85Q240.93-16.65 239.21-18.45 237.48-20.25 234.23-20.25L234.23-20.25 224.98-20.25Q221.73-20.25 220.01-18.45 218.28-16.65 218.28-12.85L218.28-12.85Q218.28-9.1 220.01-7.3 221.73-5.5 224.98-5.5ZM260.18 0L252.93 0 252.93-25.75 275.38-25.75Q279.78-25.75 281.81-23.58 283.83-21.4 283.83-17.85L283.83-17.85 283.83 0 276.58 0 276.58-17Q276.58-20 273.58-20L273.58-20 260.18-20 260.18 0ZM322.38 0L295.93 0Q291.88 0 289.73-2.05 287.58-4.1 287.58-7.9L287.58-7.9Q287.58-11.65 289.73-13.7 291.88-15.75 295.93-15.75L295.93-15.75 315.13-15.75 315.13-16.95Q315.13-20 312.13-20L312.13-20 290.93-20 290.93-25.75 314.03-25.75Q318.58-25.75 320.48-23.68 322.38-21.6 322.38-17.85L322.38-17.85 322.38 0ZM297.23-5.75L297.23-5.75 315.13-5.75 315.13-10 297.23-10Q296.28-10 295.75-9.43 295.23-8.85 295.23-7.9L295.23-7.9Q295.23-6.95 295.75-6.35 296.28-5.75 297.23-5.75ZM335.23 0L327.88 0 327.88-25.75 347.58-25.75Q351.93-25.75 353.98-23.58 356.03-21.4 356.03-17.85L356.03-17.85 356.03-12.5 348.68-12.5 348.68-16.95Q348.68-19.95 345.68-19.95L345.68-19.95 335.23-19.95 335.23 0ZM382.72 11.25L365.82 11.25 365.82 5.5 380.92 5.5Q383.92 5.5 383.92 2.45L383.92 2.45 383.92 0 368.47 0Q364.07 0 362.05-2.2 360.02-4.4 360.02-7.9L360.02-7.9 360.02-25.75 367.27-25.75 367.27-8.75Q367.27-5.75 370.27-5.75L370.27-5.75 383.67-5.75 383.67-25.75 391.17-25.75 391.17 3.35Q391.17 6.9 389.12 9.08 387.07 11.25 382.72 11.25L382.72 11.25ZM439.87 0L427.52 0 411.42-35.75 420.12-35.75 433.37-6.25 434.02-6.25 447.27-35.75 455.97-35.75 439.87 0ZM465.97 0L458.72 0 458.72-25.75 465.97-25.75 465.97 0ZM466.02-30L458.67-30 458.67-35.65 466.02-35.65 466.02-30ZM496.41 0.25L470.61 0.25 470.61-5.5 495.11-5.5Q497.21-5.5 497.21-7.85L497.21-7.85Q497.21-10.15 495.11-10.15L495.11-10.15 479.26-10.15Q474.81-10.15 472.51-12.18 470.21-14.2 470.21-18L470.21-18Q470.21-21.85 472.54-23.93 474.86-26 479.26-26L479.26-26 502.06-26 502.06-20.25 479.61-20.25Q477.46-20.25 477.46-18.15L477.46-18.15Q477.46-17.1 478.06-16.5 478.66-15.9 479.61-15.9L479.61-15.9 496.41-15.9Q500.31-15.9 502.39-13.88 504.46-11.85 504.46-8L504.46-8Q504.46-4.1 502.36-1.93 500.26 0.25 496.41 0.25L496.41 0.25ZM530.91 0L516.91 0Q512.51 0 510.49-2.2 508.46-4.4 508.46-7.9L508.46-7.9 508.46-25.75 515.71-25.75 515.71-8.75Q515.71-5.75 518.71-5.75L518.71-5.75 529.11-5.75Q532.11-5.75 532.11-8.75L532.11-8.75 532.11-25.75 539.36-25.75 539.36-7.9Q539.36-4.4 537.34-2.2 535.31 0 530.91 0L530.91 0ZM577.91 0L551.46 0Q547.41 0 545.26-2.05 543.11-4.1 543.11-7.9L543.11-7.9Q543.11-11.65 545.26-13.7 547.41-15.75 551.46-15.75L551.46-15.75 570.66-15.75 570.66-16.95Q570.66-20 567.66-20L567.66-20 546.46-20 546.46-25.75 569.56-25.75Q574.11-25.75 576.01-23.68 577.91-21.6 577.91-17.85L577.91-17.85 577.91 0ZM552.76-5.75L552.76-5.75 570.66-5.75 570.66-10 552.76-10Q551.81-10 551.28-9.43 550.76-8.85 550.76-7.9L550.76-7.9Q550.76-6.95 551.28-6.35 551.81-5.75 552.76-5.75ZM590.65 0L583.4 0 583.4-35.75 590.65-35.75 590.65 0ZM620.1 0L611.4 0 627.5-35.75 639.85-35.75 655.95 0 647.25 0 643.85-7.55 623.5-7.55 620.1 0ZM633.35-29.5L626.4-14.05 640.95-14.05 634-29.5 633.35-29.5ZM666.45 0L659.2 0 659.2-25.75 681.65-25.75Q686.05-25.75 688.07-23.58 690.1-21.4 690.1-17.85L690.1-17.85 690.1 0 682.85 0 682.85-17Q682.85-20 679.85-20L679.85-20 666.45-20 666.45 0ZM728.64 0L702.19 0Q698.14 0 695.99-2.05 693.84-4.1 693.84-7.9L693.84-7.9Q693.84-11.65 695.99-13.7 698.14-15.75 702.19-15.75L702.19-15.75 721.39-15.75 721.39-16.95Q721.39-20 718.39-20L718.39-20 697.19-20 697.19-25.75 720.29-25.75Q724.84-25.75 726.74-23.68 728.64-21.6 728.64-17.85L728.64-17.85 728.64 0ZM703.49-5.75L703.49-5.75 721.39-5.75 721.39-10 703.49-10Q702.54-10 702.02-9.43 701.49-8.85 701.49-7.9L701.49-7.9Q701.49-6.95 702.02-6.35 702.54-5.75 703.49-5.75ZM741.39 0L734.14 0 734.14-35.75 741.39-35.75 741.39 0ZM769.59 11.25L752.69 11.25 752.69 5.5 767.79 5.5Q770.79 5.5 770.79 2.45L770.79 2.45 770.79 0 755.34 0Q750.94 0 748.91-2.2 746.89-4.4 746.89-7.9L746.89-7.9 746.89-25.75 754.14-25.75 754.14-8.75Q754.14-5.75 757.14-5.75L757.14-5.75 770.54-5.75 770.54-25.75 778.04-25.75 778.04 3.35Q778.04 6.9 775.99 9.08 773.94 11.25 769.59 11.25L769.59 11.25ZM807.84 0L796.94 0Q792.59 0 790.54-2.18 788.49-4.35 788.49-7.9L788.49-7.9 788.49-20 781.04-20 781.04-25.75 788.49-25.75 788.49-33.65 795.74-33.65 795.74-25.75 806.44-25.75 806.44-20 795.74-20 795.74-8.8Q795.74-5.75 798.74-5.75L798.74-5.75 807.84-5.75 807.84 0ZM818.83 0L811.58 0 811.58-25.75 818.83-25.75 818.83 0ZM818.88-30L811.53-30 811.53-35.65 818.88-35.65 818.88-30ZM854.78 0.25L837.53 0.25Q830.83 0.25 827.08-3.08 823.33-6.4 823.33-12.85L823.33-12.85Q823.33-19.35 827.08-22.68 830.83-26 837.53-26L837.53-26 854.28-26 854.28-20.25 837.53-20.25Q834.28-20.25 832.56-18.45 830.83-16.65 830.83-12.85L830.83-12.85Q830.83-9.1 832.56-7.3 834.28-5.5 837.53-5.5L837.53-5.5 854.78-5.5 854.78 0.25ZM883.48 0.25L857.68 0.25 857.68-5.5 882.18-5.5Q884.28-5.5 884.28-7.85L884.28-7.85Q884.28-10.15 882.18-10.15L882.18-10.15 866.33-10.15Q861.88-10.15 859.58-12.18 857.28-14.2 857.28-18L857.28-18Q857.28-21.85 859.6-23.93 861.93-26 866.33-26L866.33-26 889.13-26 889.13-20.25 866.68-20.25Q864.53-20.25 864.53-18.15L864.53-18.15Q864.53-17.1 865.13-16.5 865.73-15.9 866.68-15.9L866.68-15.9 883.48-15.9Q887.38-15.9 889.45-13.88 891.53-11.85 891.53-8L891.53-8Q891.53-4.1 889.43-1.93 887.33 0.25 883.48 0.25L883.48 0.25Z" opacity="1" transform="matrix(1,0,0,1,0,0)" fill="white" class="wordmark-text-0" id="SvgjsPath3064"></path></svg></g></svg></g></svg></g></svg></g></svg></g><defs><mask></mask></defs></svg><rect width="395.52" height="20.931696880981868" fill="black" stroke="none" visibility="hidden"></rect></g></mask><linearGradient x1="0" x2="1" y1="0.548" y2="0.55" id="eff5af6c-bbb1-4086-bad5-15af91cfd3dc"><stop stop-color="#ff6cab" offset="0"></stop><stop stop-color="#7366ff" offset="1"></stop></linearGradient><rect width="395.52" height="20.931696880981868" fill="url(#eff5af6c-bbb1-4086-bad5-15af91cfd3dc)" mask="url(#af6237d4-f2fa-4ebf-98d4-3820d03e6f4e)" data-fill-palette-color="primary"></rect></svg><rect width="395.52" height="20.931696880981868" fill="none" stroke="none" visibility="hidden"></rect></g></svg></g></svg>